<svg xmlns="http://www.w3.org/2000/svg" xmlns:xlink="http://www.w3.org/1999/xlink" version="1.1" x="0px" y="0px" viewBox="0 0 100 125" fill="#B3547B" style="enable-background:new 0 0 100 100;" xml:space="preserve"><g><path d="M10.9756098,29.9423599c3.2002668,0,5.8036394,2.5986099,5.8036394,5.7922058   c0,0.5387764,0.4368324,0.9756088,0.9756107,0.9756088c0.5387764,0,0.9756088-0.4368324,0.9756088-0.9756088   c0-3.1935959,2.5986099-5.7922058,5.7922058-5.7922058c0.5387783,0,0.9756107-0.4368343,0.9756107-0.9756107   s-0.4368324-0.9756088-0.9756107-0.9756088c-3.1935959,0-5.7922058-2.6033745-5.7922058-5.8036404   c0-0.5387764-0.4368324-0.9756088-0.9756088-0.9756088c-0.5387783,0-0.9756107,0.4368324-0.9756107,0.9756088   c0,3.2002659-2.6033726,5.8036404-5.8036394,5.8036404C10.4368334,27.9911404,10,28.4279728,10,28.9667492   S10.4368334,29.9423599,10.9756098,29.9423599z M17.7539063,25.9517918   c0.7036018,1.2633381,1.7487621,2.309927,3.0101948,3.0140057c-1.2614326,0.7035999-2.3065929,1.7487602-3.0101948,3.0101929   c-0.7040787-1.2614326-1.7506676-2.3065929-3.0140057-3.0101929   C16.0032387,28.2617188,17.0498276,27.2151299,17.7539063,25.9517918z"/><path d="M67.1951218,17.5347748c2.0931778,0,3.7962112,1.6992188,3.7962112,3.7876339   c0,0.5387764,0.4368286,0.9756088,0.9756088,0.9756088c0.5387726,0,0.9756088-0.4368324,0.9756088-0.9756088   c0-2.0884151,1.6992188-3.7876339,3.7876358-3.7876339c0.5387726,0,0.9756088-0.4368324,0.9756088-0.9756088   s-0.4368362-0.9756107-0.9756088-0.9756107c-2.0884171,0-3.7876358-1.7030296-3.7876358-3.7962074   c0-0.5387774-0.4368362-0.9756098-0.9756088-0.9756098c-0.5387802,0-0.9756088,0.4368324-0.9756088,0.9756098   c0,2.0931778-1.7030334,3.7962074-3.7962112,3.7962074c-0.5387802,0-0.9756088,0.4368343-0.9756088,0.9756107   S66.6563416,17.5347748,67.1951218,17.5347748z M71.9659882,14.9890432   c0.4163513,0.6188078,0.9494095,1.1528196,1.5672607,1.569169c-0.6178513,0.4163494-1.1509094,0.9494095-1.5672607,1.5672646   c-0.4163513-0.6178551-0.9503632-1.1509151-1.5691681-1.5672646C71.015625,16.1418629,71.5496368,15.607851,71.9659882,14.9890432z   "/><path d="M79.4893265,31.4715137c2.0931778,0,3.7957382,1.6992168,3.7957382,3.7876339   c0,0.5387764,0.4368286,0.9756088,0.9756088,0.9756088c0.5387726,0,0.9756088-0.4368324,0.9756088-0.9756088   c0-2.0884171,1.6992188-3.7876339,3.7881088-3.7876339C89.5631638,31.4715137,90,31.0346794,90,30.495903   s-0.4368362-0.9756088-0.9756088-0.9756088c-2.0888901,0-3.7881088-1.7030296-3.7881088-3.7962093   c0-0.5387764-0.4368362-0.9756088-0.9756088-0.9756088c-0.5387802,0-0.9756088,0.4368324-0.9756088,0.9756088   c0,2.0931797-1.7025604,3.7962093-3.7957382,3.7962093c-0.5387726,0-0.9756088,0.4368324-0.9756088,0.9756088   S78.9505539,31.4715137,79.4893265,31.4715137z M84.2601929,28.9257813c0.4158707,0.6188068,0.9489365,1.1528206,1.5672684,1.56917   c-0.6183319,0.4163475-1.1513977,0.9494076-1.5672684,1.5672626c-0.4168243-0.6178551-0.9508362-1.1509151-1.5696411-1.5672626   C83.3093567,30.0786018,83.8433685,29.5445881,84.2601929,28.9257813z"/><path d="M86.3328857,41.9731331c-1.2099838-1.0999451-2.7748642-1.7058868-4.4073868-1.7058868   c-3.3522339,0-6.1490097,2.5119095-6.5062943,5.8436546l-1.4457855,13.6027985l-4.0239182,4.0239143   c-0.2205582-0.3891945-0.493042-0.7483788-0.8136368-1.0694542c-0.9441757-0.9498863-2.2003632-1.473896-3.5380173-1.4762764   c-0.0023804,0-0.0052414,0-0.0080948,0c-1.3343201,0-2.5890846,0.519722-3.5323029,1.4634132l-7.4290199,7.4052048   c-1.4872322,1.4824677-2.306118,3.4551239-2.306118,5.5549698v7.1722565v5.4249268   c0,0.5387726,0.4368362,0.9756088,0.9756126,0.9756088h18.6647301c0.5387726,0,0.9756088-0.4368362,0.9756088-0.9756088v-4.738472   l14.7089386-14.7089386C89.164444,67.2480011,90,65.2305603,89.9957123,62.9939995l-1.5529709-16.7883034   C88.2941132,44.5774574,87.5447769,43.0745049,86.3328857,41.9731331z M70.9870453,87.2370453H54.2735329v-3.4737091h16.7135124   V87.2370453z M86.2676239,67.3856735l-14.426445,14.426445h-17.567646v-6.1966476   c0-1.5772629,0.6154709-3.0592575,1.732563-4.1730194l7.4299736-7.4066315   c0.5759315-0.5759315,1.3405113-0.8927193,2.1541557-0.8927193c0.0014267,0,0.002861,0,0.0047607,0   c0.8150787,0.0014305,1.5810776,0.3210754,2.1584473,0.902729c0.4439774,0.4439774,0.7374191,1.0075226,0.8479385,1.6258545   c0.0309677,0.1762543,0.0462112,0.3520355,0.0462112,0.5282974c0,0.0128632,0,0.0257263,0,0.0385818   c-0.0004807,0.0047684-0.0004807,0.0095291-0.0004807,0.0142975c-0.0133362,0.7955399-0.3277435,1.5377274-0.8927231,2.1003189   c-0.0023804,0.0019073-0.0042877,0.0042877-0.0061874,0.0061951c-0.0019073,0.0019073-0.0038147,0.003334-0.0052414,0.0052414   l-4.9676056,4.9476013c-0.3825302,0.3796616-0.3853874,0.9970398-0.0057182,1.37957   c0.3791924,0.3830032,0.9975243,0.3858643,1.3795738,0.0057144l4.969986-4.9499817   c0.9541779-0.9422607,1.4796143-2.2017899,1.4796143-3.5475388c0-0.0090485,0-0.0181046,0-0.027153   c-0.0004807-0.1043243-0.0047684-0.2091293-0.0119095-0.3134537l5.0100021-5.0100021   c0.1576767-0.1576805,0.2567673-0.3649025,0.2805862-0.5868912l1.481987-13.9448357   c0.2505722-2.3370819,2.213707-4.0991821,4.5660324-4.0991821c1.145668,0,2.2446594,0.4253998,3.094986,1.1985512   c0.8493729,0.7722015,1.3748093,1.8259354,1.4796066,2.9677963l1.5486908,16.6992188   C88.0487823,64.6855927,87.3994827,66.2538147,86.2676239,67.3856735z"/><path d="M37.9435005,62.65625c-0.9441681-0.9446449-2.1989326-1.4643669-3.5332489-1.4643669c-0.0028572,0-0.0057182,0-0.0080986,0   c-1.3376541,0.0023804-2.5938454,0.5263901-3.536108,1.474369c-0.3215523,0.3220291-0.5945129,0.6816902-0.815073,1.0713615   l-4.0243912-4.0239143l-1.4462643-13.6037521c-0.356802-3.3307915-3.1535816-5.842701-6.5058117-5.842701   c-1.6325264,0-3.1974087,0.6059418-4.4069176,1.70541c-1.2123661,1.1018486-1.9616995,2.6048012-2.1103277,4.23209L10,63.0840302   c0,2.1465302,0.835556,4.1639709,2.3528013,5.6812134l14.7089357,14.7089386v4.738472   c0,0.5387726,0.4368343,0.9756088,0.9756107,0.9756088H46.702076c0.5387764,0,0.9756126-0.4368362,0.9756126-0.9756088v-5.4249268   v-7.1722565c0-2.0998459-0.8188858-4.0725021-2.306118-5.5544968L37.9435005,62.65625z M45.7264671,87.2370453H29.0129566   v-3.4737091h16.7135105V87.2370453z M45.7264671,81.8121185H28.158823l-14.4264488-14.426445   c-1.1318598-1.1318588-1.7811546-2.7000809-1.7854424-4.2116089l1.5529728-16.7902031   c0.1048021-1.1409111,0.6302404-2.1946449,1.4800873-2.9673233c0.8498478-0.7726746,1.9488373-1.1980743,3.0945129-1.1980743   c2.3523235,0,4.3154526,1.7621002,4.5655479,4.0982285l1.4824696,13.9457893   c0.023819,0.2219887,0.1229038,0.4292107,0.2805843,0.5868912l5.0100021,5.0100021   c-0.0080967,0.1133728-0.0119076,0.2272263-0.0119076,0.3406067c0,0.027626,0,0.0552597,0.0004749,0.0828857   c0.0209618,1.3090744,0.5402069,2.5323944,1.4648438,3.4508438c0.0042877,0.0042877,0.0085754,0.0085678,0.01334,0.0128555   l4.9709396,4.9509354c0.3815765,0.3791962,0.9999046,0.3763351,1.3795738-0.0057144   c0.3796692-0.3825302,0.376812-0.9999084-0.0057182-1.37957l-4.9656982-4.9461746   c-0.0023842-0.0023804-0.0047646-0.0042877-0.0071449-0.0066681c-0.5802231-0.5726013-0.8993912-1.3395615-0.8993912-2.1593933   c0-0.1753082,0.0152435-0.3506088,0.0457306-0.5259171c0.111948-0.621666,0.4049168-1.1847382,0.8503227-1.6301422   c0.5754585-0.5797462,1.341465-0.8993912,2.1565361-0.9008217c0.0019073,0,0.003334,0,0.0047646,0   c0.8136444,0,1.5782204,0.3167877,2.1551056,0.8936729l7.4290237,7.4061584   c1.1170921,1.1132813,1.732563,2.5952759,1.732563,4.1725388V81.8121185z"/><path d="M77.8468018,68.7052231l-5.9146347,5.9146347c-0.3811035,0.3810959-0.3811035,0.9984741,0,1.37957   c0.1905441,0.1905518,0.4401627,0.28582,0.6897812,0.28582s0.4992371-0.0952682,0.6897888-0.28582l5.9146347-5.9146347   c0.3810959-0.3810959,0.3810959-0.9984741,0-1.37957S78.2278976,68.3241272,77.8468018,68.7052231z"/><path d="M82.6028976,63.9491234l-1.0975647,1.0975609c-0.3810959,0.3810959-0.3810959,0.9984741,0,1.37957   c0.1905518,0.1905518,0.4401703,0.2858276,0.6897888,0.2858276s0.4992371-0.0952759,0.6897888-0.2858276l1.0975571-1.0975571   c0.3810959-0.3810959,0.3810959-0.9984741,0-1.3795738C83.6013718,63.5680275,82.9839935,63.5680275,82.6028976,63.9491234z"/><path d="M43.2283745,48.8962479v5.0166702c0,0.5387764,0.4368324,0.9756126,0.9756088,0.9756126h11.5920334   c0.5387764,0,0.9756088-0.4368362,0.9756088-0.9756126v-5.0166702c0-0.5387802-0.4368324-0.9756126-0.9756088-0.9756126H44.2039833   C43.6652069,47.9206352,43.2283745,48.3574677,43.2283745,48.8962479z M45.1795921,49.8718567h9.6408157v3.0654526h-9.6408157   V49.8718567z"/><path d="M50,38.8424149c-0.5387764,0-0.9756088,0.4368362-0.9756088,0.9756126S49.4612236,40.7936363,50,40.7936363   c0.217701,0,0.4344521-0.0085754,0.6497726-0.0252495c0.536869-0.0419197,0.9384499-0.5111465,0.897007-1.0484924   c-0.0423965-0.5373497-0.5116234-0.9451218-1.0484962-0.8970108C50.3334618,38.8357468,50.1672058,38.8424149,50,38.8424149z"/><path d="M47.8415604,38.4636993c-2.4795189-0.9027252-4.1453896-3.2841072-4.1453896-5.9251137   c0-0.5387764-0.4368324-0.9756088-0.9756088-0.9756088c-0.5387802,0-0.9756126,0.4368324-0.9756126,0.9756088   c0,3.4579849,2.1817856,6.57584,5.4287376,7.758194c0.1105156,0.040493,0.2229385,0.0595474,0.3339348,0.0595474   c0.3982468,0,0.7726746-0.2462845,0.9165382-0.6421509C48.6085167,39.2077942,48.3479424,38.648056,47.8415604,38.4636993z"/><path d="M41.5379677,39.7022667c1.0995865,1.2974014,2.469986,2.3126678,4.0150986,2.9901886v2.4299736h-4.5569725   c-0.5387764,0-0.9756088,0.4368324-0.9756088,0.9756088v10.6130905c0,0.5387764,0.4368324,0.9756088,0.9756088,0.9756088   h18.0078125c0.5387764,0,0.9756088-0.4368324,0.9756088-0.9756088V46.0980377c0-0.5387764-0.4368324-0.9756088-0.9756088-0.9756088   h-4.5569725V42.692276c1.5449333-0.6774025,2.9152145-1.6924896,4.0152168-2.9900093   c5.4134331-0.8244781,9.4527664-5.4786949,9.4527664-10.9946632v-1.701601c0-2.9273663-2.1839218-5.3480492-5.0069046-5.7342091   c0.3281593-0.5626545,0.5223427-1.210043,0.5223427-1.9006042c0-2.0907974-1.7011261-3.7919207-3.7919197-3.7919207H40.3615646   c-2.0907936,0-3.7919197,1.7011232-3.7919197,3.7919207c0,0.6905613,0.1941833,1.3379498,0.5223427,1.9006042   c-2.822979,0.3861599-5.0069084,2.8068428-5.0069084,5.7342091v1.701601   C32.0850792,34.2236328,36.1244774,38.8777885,41.5379677,39.7022667z M58.0282974,47.0736465v8.6618729H41.9717026v-8.6618729   h4.5569763h6.9426422H58.0282974z M47.5042877,45.1224289v-1.755909c0.0673485,0.0154839,0.1370773,0.0206032,0.2047806,0.0348358   c0.2717094,0.057106,0.5453262,0.1032524,0.8212662,0.1397552c0.1074219,0.0141716,0.2137718,0.0311432,0.3216705,0.04216   C49.232029,43.6223335,49.6142578,43.648056,50,43.648056s0.767971-0.0257225,1.147995-0.064785   c0.1079597-0.0110779,0.2142487-0.0279884,0.3217316-0.04216c0.2756996-0.0365028,0.5493164-0.0826492,0.8207893-0.139698   c0.0678215-0.0142288,0.1377296-0.019352,0.2051964-0.034893v1.755909H47.5042877z M65.9636993,27.0060024v1.701601   c0,3.8862419-2.4280663,7.2599068-5.9184456,8.5846977c0.0174484-0.0366783,0.0289993-0.0756836,0.046032-0.1125412   c0.1535683-0.3322105,0.2955894-0.6690063,0.4147987-1.014019c0.0023842-0.0069084,0.003933-0.0141716,0.0063133-0.0211372   c0.1164131-0.3390579,0.2110329-0.6852608,0.2936821-1.0349197c0.0252495-0.1070061,0.0457344-0.214962,0.0678825-0.3228607   c0.0543671-0.2655182,0.0989075-0.5332985,0.1338043-0.8037567c0.0141106-0.1090889,0.0298309-0.2175255,0.0406685-0.3273277   c0.0365601-0.3691902,0.0610352-0.7409363,0.0610352-1.1171532v-9.3754768h1.0113373   C64.2397079,23.1631088,65.9636993,24.8871002,65.9636993,27.0060024z M40.3615646,17.5304871h19.2768707   c1.0151482,0,1.8406982,0.8255539,1.8406982,1.8407021c0,0.8898621-0.6378593,1.6492004-1.5162888,1.8059254   c-0.465416,0.0828896-0.8045959,0.4878063-0.8045959,0.9603672V22.1875v10.3510857   c0,0.2586708-0.0105362,0.5155525-0.031559,0.7702332c-0.1469612,1.7828217-0.8047714,3.4579849-1.9239464,4.8847771   l-0.0001793,0.0002975c-1.0617142,1.3485527-2.4670105,2.3688812-4.0656548,2.9513054   c-1.002285,0.3658524-2.0695381,0.5487785-3.1368484,0.5487785c-0.5336571,0-1.0672531-0.0457306-1.5928688-0.1371956   c-0.5255585-0.0914612-1.0429573-0.2286568-1.5441017-0.4115829l-0.0010109-0.0002403   c-1.598526-0.5826607-3.0040627-1.6034088-4.0648232-2.9513626c-1.2790604-1.630619-1.9555054-3.5856514-1.9555054-5.6550102   v-9.3754768h9.1706352c0.5387764,0,0.9756088-0.4368324,0.9756088-0.9756088s-0.4368324-0.9756088-0.9756088-0.9756088h-9.8807297   c-0.032692-0.0094681-0.060379-0.0287018-0.0945015-0.0347767c-0.8784294-0.1567249-1.5162888-0.9160633-1.5162888-1.8059254   C38.5208664,18.356041,39.3464165,17.5304871,40.3615646,17.5304871z M34.0363007,27.0060024   c0-2.1189022,1.7239876-3.8428936,3.8428917-3.8428936h1.0113373v9.3754768c0,0.3762169,0.0244751,0.747963,0.0610352,1.1171532   c0.0108376,0.1098022,0.0265579,0.2182388,0.0406685,0.3273277c0.0348358,0.2702789,0.0794373,0.5378838,0.1337433,0.8032799   c0.0222092,0.1081963,0.0426369,0.2165718,0.0680618,0.3238754c0.0822334,0.3476906,0.1764946,0.6919289,0.2920761,1.0291405   c0.0030365,0.008934,0.0050621,0.0182228,0.0080986,0.027153c0.1190338,0.3443565,0.2607536,0.6804962,0.4140244,1.0121117   c0.0172119,0.0372162,0.0288811,0.0765762,0.0465088,0.1136742c-3.4903793-1.324791-5.9184456-4.6984558-5.9184456-8.5846977   V27.0060024z"/><path d="M53.4713211,23.1631088h0.8588982c0.5387802,0,0.9756126-0.4368324,0.9756126-0.9756088   s-0.4368324-0.9756088-0.9756126-0.9756088h-0.8588982c-0.5387764,0-0.9756088,0.4368324-0.9756088,0.9756088   S52.9325447,23.1631088,53.4713211,23.1631088z"/></g></svg>