<svg xmlns="http://www.w3.org/2000/svg" xmlns:xlink="http://www.w3.org/1999/xlink" version="1.1" x="0px" y="0px" viewBox="0 0 512 640" style="enable-background:new 0 0 512 512;" xml:space="preserve"><g><path d="M270.2,182.9c-1.3-1-3.2-0.7-4.2,0.7l-25,34.9c-1,1.3-0.7,3.2,0.7,4.2c0.5,0.4,1.1,0.6,1.7,0.6c0.9,0,1.9-0.4,2.4-1.3   l25-34.9C271.9,185.7,271.6,183.8,270.2,182.9z"/><path d="M268.9,221.4c-1.3-1-3.2-0.7-4.2,0.7l-25,34.9c-1,1.3-0.7,3.2,0.7,4.2c0.5,0.4,1.1,0.6,1.7,0.6c0.9,0,1.9-0.4,2.4-1.3   l25-34.9C270.6,224.3,270.3,222.4,268.9,221.4z"/><path d="M432.1,116.5c-9.1-41.7-46.3-71.7-89.1-71.7c-16.8,0-33.2,4.6-47.5,13.3c-20.9-27.3-53.7-43.6-88.2-43.6   c-27.6,0-54.1,10.2-74.6,28.8c-19.7,17.9-32.3,42.1-35.6,68.4C59,117.8,30.4,151.1,30.4,190c0,43.8,35.6,79.4,79.4,79.4h49.8   c14.2,31.3,43.2,54.4,78,60.6v24.9h-31.2c-1.7,0-3,1.3-3,3v19.7c0,1.7,1.3,3,3,3H223v85.8h-56.2c-1.7,0-3,1.3-3,3s1.3,3,3,3H226   H286h59.1c1.7,0,3-1.3,3-3s-1.3-3-3-3H289v-85.8h16.6c1.7,0,3-1.3,3-3v-19.7c0-1.7-1.3-3-3-3h-31.2V330c34.8-6.1,63.8-29.3,78-60.6   h49.8c43.8,0,79.4-35.6,79.4-79.4C481.6,158,461.7,128.6,432.1,116.5z M283,466.4H229v-85.8H283V466.4z M302.7,360.9v13.7h-93.3   v-13.7h31.2h30.9H302.7z M243.5,354.9L243.5,354.9v-24c0.5,0.1,0.9,0.1,1.4,0.1c0.2,0,0.4,0,0.6,0.1c0.6,0.1,1.3,0.1,1.9,0.2   c0.4,0,0.9,0.1,1.4,0.1c0.4,0,0.9,0.1,1.4,0.1c0.7,0,1.5,0.1,2.2,0.1c0.2,0,0.4,0,0.6,0c1,0,2,0,3.1,0s2,0,3.1,0c0.1,0,0.1,0,0.2,0   c0.9,0,1.8-0.1,2.7-0.1c0.3,0,0.6,0,1-0.1c0.6,0,1.2-0.1,1.8-0.1c0.5,0,1-0.1,1.4-0.1c0.4,0,0.8-0.1,1.2-0.1c0.3,0,0.7-0.1,1-0.1   v24L243.5,354.9L243.5,354.9z M269.6,324.7c-0.5,0.1-1,0.1-1.5,0.2c-0.5,0.1-0.9,0.1-1.4,0.2c-1,0.1-2.1,0.2-3.1,0.3   c-0.1,0-0.1,0-0.2,0c-1.1,0.1-2.3,0.1-3.4,0.2c-0.1,0-0.2,0-0.4,0c-2.4,0.1-4.8,0.1-7.1,0c-0.2,0-0.4,0-0.5,0c-1,0-2.1-0.1-3.1-0.2   c-0.2,0-0.5,0-0.7,0c-0.9-0.1-1.8-0.2-2.7-0.2c-0.6-0.1-1.3-0.1-1.9-0.2c-0.2,0-0.4-0.1-0.7-0.1c-48.9-6.4-86.7-48.4-86.7-99   c0-55,44.8-99.8,99.8-99.8c55,0,99.8,44.8,99.8,99.8C355.8,276.2,318.2,318,269.6,324.7z M402.2,263.4h-47.2   c2-5.2,3.5-10.6,4.6-16.1c0-0.2,0.1-0.3,0.1-0.5c0.3-1.3,0.5-2.6,0.7-3.8c0.1-0.5,0.2-1.1,0.3-1.6c0.1-0.7,0.2-1.3,0.3-2   c0.1-1.1,0.3-2.2,0.4-3.3c0-0.5,0.1-0.9,0.1-1.4c0.1-1.3,0.2-2.5,0.3-3.8c0-0.3,0-0.5,0-0.8c0.1-1.4,0.1-2.9,0.1-4.4   c0-58.3-47.5-105.8-105.8-105.8c-58.4,0-105.8,47.5-105.8,105.8c0,1.5,0,2.9,0.1,4.4c0,0.2,0,0.4,0,0.7c0.1,1.4,0.2,2.7,0.3,4   c0,0.3,0.1,0.7,0.1,1c0.1,1.3,0.3,2.6,0.4,3.8c0.1,0.4,0.1,0.8,0.2,1.2c0.2,1.2,0.4,2.5,0.6,3.7c0.1,0.4,0.1,0.8,0.2,1.2   c0.2,1.1,0.4,2.1,0.6,3.1c0.1,0.5,0.2,1,0.3,1.5c0.2,1,0.5,2,0.8,3c0.1,0.4,0.2,0.8,0.3,1.3c0.3,1.1,0.7,2.2,1,3.4   c0.1,0.5,0.3,0.9,0.5,1.4c0.4,1.1,0.7,2.1,1.1,3.2c0.1,0.3,0.2,0.5,0.3,0.8h-47.3c-40.4,0-73.4-32.9-73.4-73.4   c0-36.7,27.4-67.9,63.8-72.7c1.4-0.2,2.4-1.3,2.6-2.7c5.5-53.6,50.4-94.1,104.4-94.1c33.5,0,65.3,16.2,85,43.4   c0.9,1.3,2.7,1.6,4.1,0.8c13.9-9.1,30-13.8,46.6-13.8c40.5,0,75.7,28.8,83.6,68.5c0.2,1,0.9,1.8,1.9,2.2   c28.2,10.9,47.2,38.4,47.2,68.5C475.6,230.5,442.6,263.4,402.2,263.4z"/><path d="M256,144.8c-44.7,0-81,36.3-81,81c0,44.6,36.3,81,81,81c44.6,0,80.9-36.3,80.9-81C336.9,181.1,300.6,144.8,256,144.8z    M256,300.8c-41.3,0-75-33.6-75-75s33.6-75,75-75c41.3,0,74.9,33.6,74.9,75S297.3,300.8,256,300.8z"/><path d="M326.5,491.5h-141c-1.7,0-3,1.3-3,3s1.3,3,3,3h141c1.7,0,3-1.3,3-3S328.2,491.5,326.5,491.5z"/></g></svg>