<svg xmlns="http://www.w3.org/2000/svg" xmlns:xlink="http://www.w3.org/1999/xlink" version="1.1" x="0px" y="0px" viewBox="0 0 100 125" style="enable-background:new 0 0 100 100;" fill="#B3547B" xml:space="preserve"><g><path d="M89.0243912,28.8843365C89.5636444,28.8843365,90,28.4479809,90,27.9087276V14.1863565   c0-0.5392532-0.4363556-0.9756098-0.9756088-0.9756098h-13.722374c-0.5392532,0-0.9756088,0.4363565-0.9756088,0.9756098   v13.7223711c0,0.5392532,0.4363556,0.9756088,0.9756088,0.9756088h5.8822403v13.2783909h-5.8850937   c-0.5392532,0-0.9756088,0.4363594-0.9756088,0.9756126v13.72332c0,0.5392532,0.4363556,0.9756126,0.9756088,0.9756126h5.8850937   v13.278389h-5.8822403c-0.5392532,0-0.9756088,0.4363556-0.9756088,0.9756088v13.722374   c0,0.5392532,0.4363556,0.9756088,0.9756088,0.9756088h13.722374C89.5636444,86.7892532,90,86.3528976,90,85.8136444v-13.722374   c0-0.5392532-0.4363556-0.9756088-0.9756088-0.9756088h-5.8889084v-13.278389h5.8860474   c0.5392532,0,0.9756088-0.4363594,0.9756088-0.9756126V43.13834c0-0.5392532-0.4363556-0.9756126-0.9756088-0.9756126h-5.8860474   V28.8843365H89.0243912z M88.0487823,73.0668793v11.7711563H76.277626V73.0668793H88.0487823z M88.0459213,44.1139488v11.7721024   H76.2747726V44.1139488H88.0459213z M76.277626,26.9331169V15.1619663h11.7711563v11.7711506H76.277626z"/><path d="M73.7843018,31.5367756c-0.4916153-0.2086506-1.0680313,0.0266781-1.2757263,0.5249615l-0.5011444,1.2004585   c-0.207695,0.4963799,0.0276337,1.0680237,0.5249634,1.2757225c0.1219482,0.0514488,0.2496185,0.0752678,0.3753815,0.0752678   c0.3810959,0,0.7440948-0.2257996,0.9003448-0.6002274L74.3092575,32.8125   C74.5169601,32.3161201,74.2816315,31.7444744,73.7843018,31.5367756z"/><path d="M70.5783157,39.2197037c-0.496376-0.2076988-1.0680237,0.0276299-1.2757263,0.5249596L56.2099266,71.1156616h-5.2362213   v-13.278389h5.8860512c0.5392532,0,0.9756088-0.4363594,0.9756088-0.9756126V43.13834   c0-0.5392532-0.4363556-0.9756126-0.9756088-0.9756126h-5.8860512V28.8843365h5.8889084   c0.5392532,0,0.9756088-0.4363556,0.9756088-0.9756088V14.1863565c0-0.5392532-0.4363556-0.9756098-0.9756088-0.9756098H43.1402435   c-0.5392532,0-0.9756088,0.4363565-0.9756088,0.9756098v13.5273561L24.05196,71.1156616h-5.2390785v-13.278389h5.8850994   c0.5392532,0,0.9756088-0.4363594,0.9756088-0.9756126V43.13834c0-0.5392532-0.4363556-0.9756126-0.9756088-0.9756126h-5.8850994   V28.8843365h5.8889103c0.5392532,0,0.9756088-0.4363556,0.9756088-0.9756088V14.1863565   c0-0.5392532-0.4363556-0.9756098-0.9756088-0.9756098H10.9784679c-0.5392532,0-0.9756098,0.4363565-0.9756098,0.9756098   v13.7223711c0,0.5392532,0.4363565,0.9756088,0.9756098,0.9756088h5.883194v13.2783909h-5.8860521   C10.4363565,42.1627274,10,42.5990868,10,43.13834v13.72332c0,0.5392532,0.4363565,0.9756126,0.9756098,0.9756126h5.8860521   v13.278389h-5.883194c-0.5392532,0-0.9756098,0.4363556-0.9756098,0.9756088v13.722374   c0,0.5392532,0.4363565,0.9756088,0.9756098,0.9756088h13.7233238c0.5392532,0,0.9756088-0.4363556,0.9756088-0.9756088v-13.527359   l18.1126728-43.401947h5.2324104v13.2783909h-5.8850975c-0.5392532,0-0.9756088,0.4363594-0.9756088,0.9756126v13.72332   c0,0.5392532,0.4363556,0.9756126,0.9756088,0.9756126h5.8850975v13.278389h-5.8822403   c-0.5392532,0-0.9756088,0.4363556-0.9756088,0.9756088v13.722374c0,0.5392532,0.4363556,0.9756088,0.9756088,0.9756088h13.7223701   c0.5392532,0,0.9756088-0.4363556,0.9756088-0.9756088V72.2794418l13.2650566-31.7840157   C71.3109741,39.9980927,71.0756454,39.4274025,70.5783157,39.2197037z M11.9540777,26.9331169V15.1619663H23.726181v11.7711506   H11.9540777z M11.9512196,55.8860512V44.1139488h11.7711506v11.7721024H11.9512196z M23.726181,84.8380356H11.9540777V73.0668793   H23.726181V84.8380356z M44.1158524,26.9331169V15.1619663h11.7711525v11.7711506H44.1158524z M44.1129951,55.8860512V44.1139488   h11.7711525v11.7721024H44.1129951z M55.8870049,84.8380356H44.1158524V73.0668793h11.7711525V84.8380356z"/></g></svg>