<?xml version="1.0"?>
<svg xmlns="http://www.w3.org/2000/svg" xmlns:xlink="http://www.w3.org/1999/xlink" version="1.1" x="0px" y="0px" viewBox="0 0 512 640" style="enable-background:new 0 0 512 512;" fill="#B3547B" xml:space="preserve">
<g>
    <path d="M58.3,117.8h158c3.3,0,6-2.7,6-6s-2.7-6-6-6h-158c-3.3,0-6,2.7-6,6S54.9,117.8,58.3,117.8z"/>
    <path d="M58.3,174.5h229.5c3.3,0,6-2.7,6-6s-2.7-6-6-6H58.3c-3.3,0-6,2.7-6,6S54.9,174.5,58.3,174.5z"/>
    <path d="M58.3,231.2h229.5c3.3,0,6-2.7,6-6s-2.7-6-6-6H58.3c-3.3,0-6,2.7-6,6S54.9,231.2,58.3,231.2z"/>
    <path d="M58.3,287.9h229.5c3.3,0,6-2.7,6-6s-2.7-6-6-6H58.3c-3.3,0-6,2.7-6,6S54.9,287.9,58.3,287.9z"/>
    <path d="M58.3,344.6h229.5c3.3,0,6-2.7,6-6s-2.7-6-6-6H58.3c-3.3,0-6,2.7-6,6S54.9,344.6,58.3,344.6z"/>
    <path d="M501.6,93.4c-0.4-1.5-1.4-2.8-2.8-3.6l-51.9-29.9c-2.9-1.7-6.5-0.7-8.2,2.2l-16.8,29.1c0,0,0,0,0,0l-80.3,139.1v-98.8   c0-0.1,0-0.1,0-0.2s0-0.1,0-0.2c0-0.3,0-0.5-0.1-0.8c0,0,0,0,0,0c-0.1-0.3-0.1-0.5-0.2-0.7c0-0.1,0-0.1-0.1-0.2   c-0.1-0.2-0.2-0.5-0.3-0.7c0,0,0,0,0,0c-0.1-0.2-0.3-0.4-0.4-0.7c0-0.1-0.1-0.1-0.1-0.2c-0.2-0.2-0.3-0.4-0.5-0.6l-82.9-82.9   c-0.2-0.2-0.4-0.4-0.6-0.5c-0.1,0-0.1-0.1-0.2-0.1c-0.2-0.2-0.4-0.3-0.7-0.4c0,0,0,0-0.1,0c-0.2-0.1-0.4-0.2-0.6-0.3   c-0.1,0-0.1-0.1-0.2-0.1c-0.2-0.1-0.5-0.1-0.7-0.2c0,0,0,0-0.1,0c-0.2,0-0.5-0.1-0.7-0.1c-0.1,0-0.2,0-0.2,0c-0.1,0-0.1,0-0.2,0   H16.9c-3.3,0-6,2.7-6,6v415.8c0,3.3,2.7,6,6,6h318.6c3.3,0,6-2.7,6-6V353.8l24.4-22.6c0,0,0,0,0.1-0.1c0.1-0.1,0.2-0.2,0.2-0.2   c0.1-0.1,0.2-0.2,0.3-0.3c0.1-0.1,0.1-0.2,0.2-0.3c0.1-0.1,0.2-0.3,0.3-0.4c0,0,0.1-0.1,0.1-0.1l117-202.7c0,0,0,0,0,0L501,98   C501.8,96.6,502,95,501.6,93.4z M331.6,346.6c0,0-0.1,0.1-0.1,0.1l-8.7,8.1c-2.5-2.2-5.3-4.2-8.3-5.9c-2.9-1.7-6-3.1-9.1-4.2   l8.7-38.7l37.8,21.8L331.6,346.6z M297.9,377.8l4.8-21.2c2,0.8,3.9,1.7,5.8,2.8c1.9,1.1,3.7,2.4,5.4,3.7L297.9,377.8z M331.3,302.2   l-13-7.5l111-192.3l15.6,9l-111,192.3L331.3,302.2z M321.1,125.4h-62.4V62.9l32.6,32.6L321.1,125.4z M329.6,458.3H22.9V54.4h223.7   v76.9c0,3.3,2.7,6,6,6h76.9V251L305,293.5l-0.2,0.3c0,0.1-0.1,0.1-0.1,0.2c0,0.1-0.1,0.1-0.1,0.2c0,0.1-0.1,0.2-0.1,0.3   c0,0.1,0,0.1-0.1,0.2c0,0,0,0.1-0.1,0.1c-0.1,0.2-0.1,0.4-0.2,0.6c0,0,0,0,0,0l-11.7,52c0,0,0,0.1,0,0.1l-9.4,41.7H58.3   c-3.3,0-6,2.7-6,6s2.7,6,6,6h229.5c0.2,0,0.4,0,0.7,0c0,0,0,0,0.1,0c0.1,0,0.2,0,0.3,0c0,0,0.1,0,0.1,0c0.1,0,0.3-0.1,0.4-0.1   c0,0,0.1,0,0.1,0c0.2,0,0.3-0.1,0.5-0.2c0,0,0.1,0,0.1,0c0.1,0,0.2-0.1,0.2-0.1c0,0,0.1,0,0.1-0.1c0.2-0.1,0.4-0.2,0.6-0.3   c0,0,0.1,0,0.1-0.1c0,0,0,0,0.1,0c0,0,0,0,0.1,0c0.2-0.2,0.5-0.3,0.7-0.5c0,0,0,0,0.1,0c0,0,0,0,0,0l37.1-34.3l0.6-0.6L329.6,458.3   L329.6,458.3z M359.7,318.6l-15.5-9l111-192.3l15.5,9L359.7,318.6z M476.7,115.9l-31.6-18.3l-9.9-5.7l10.8-18.7l41.5,23.9   L476.7,115.9z"/>
</g>
</svg>
