<svg xmlns="http://www.w3.org/2000/svg" version="1.1" viewBox="0 0 41 51.25" x="0px" y="0px"><title>transfer</title><path d="M2.808 2.242c-0.256 0-0.46 0.204-0.46 0.458v14.527c0 0.269 0.199 0.46 0.46 0.46h14.527c0.254 0 0.458-0.204 0.458-0.46v-8.178c0-0.256-0.202-0.458-0.458-0.458s-0.458 0.202-0.458 0.458v7.72h-13.611v-13.608h14.069c0.254 0 0.458-0.204 0.458-0.46s-0.202-0.458-0.458-0.458zM27.705 2.245c-0.117 0-0.231 0.042-0.328 0.135l-0.005 0.002-2.835 2.838c-0.184 0.184-0.189 0.459 0.003 0.653l2.845 2.828c0.094 0.094 0.209 0.138 0.32 0.138s0.223-0.042 0.32-0.138c0.183-0.183 0.188-0.462-0.003-0.656l-2.035-2.047h5.881c3.274 0 5.946 2.68 5.946 5.946v3.351c0 0.256 0.204 0.46 0.458 0.46s0.458-0.204 0.458-0.46v-3.351c0-3.793-3.069-6.862-6.862-6.862h-5.881l2.037-2.050v-0.002c0.182-0.182 0.184-0.457-0.003-0.651-0.094-0.093-0.2-0.135-0.318-0.135zM23.585 23.022c-0.256 0-0.458 0.202-0.458 0.458v14.527c0 0.263 0.189 0.46 0.458 0.46h14.527c0.254 0 0.46-0.207 0.46-0.46v-8.178c0-0.254-0.204-0.458-0.46-0.458s-0.458 0.202-0.458 0.458v7.72h-13.608v-13.608h14.066c0.254 0 0.46-0.207 0.46-0.46s-0.204-0.458-0.46-0.458zM2.728 25.245c-0.254 0-0.458 0.204-0.458 0.46v3.351c0.008 3.793 3.077 6.862 6.869 6.862h5.893l-2.050 2.052c-0.182 0.182-0.184 0.457 0.003 0.651 0.094 0.093 0.208 0.138 0.318 0.138s0.225-0.041 0.323-0.138l2.838-2.84c0.183-0.183 0.187-0.456-0.003-0.651l-2.838-2.838c-0.184-0.184-0.459-0.189-0.653 0.003-0.185 0.183-0.186 0.457 0.008 0.653l2.034 2.047h-5.881c-3.274 0-5.946-2.68-5.946-5.946v-3.343c0-0.256-0.204-0.46-0.458-0.46z"/></svg>