<svg xmlns="http://www.w3.org/2000/svg" xmlns:se="http://svg-edit.googlecode.com" xmlns:xlink="http://www.w3.org/1999/xlink" xmlns:dc="http://purl.org/dc/elements/1.1/" xmlns:cc="http://creativecommons.org/ns#" xmlns:rdf="http://www.w3.org/1999/02/22-rdf-syntax-ns#" xmlns:inkscape="http://www.inkscape.org/namespaces/inkscape" width="30.03067398071289" height="32.621822357177734" style="">                                    <title>my vector image</title>                                    <!-- Created with Vector Paint - http://www.vectorpaint.yaks.com/ https://chrome.google.com/webstore/detail/hnbpdiengicdefcjecjbnjnoifekhgdo -->                                    <rect id="backgroundrect" width="100%" height="100%" x="0" y="0" fill="#FFFFFF" stroke="none" class="" style=""/>                                <g class="currentLayer" style=""><title>Layer 1</title><path fill="#833254" stroke="#ffffff" stroke-width="0" stroke-linejoin="round" stroke-dashoffset="" fill-rule="nonzero" marker-start="" marker-mid="" marker-end="" id="svg_1" d="M9.832790982531103,27.57899860827225 L3.8094045178283373,32.29698869071195 L6.11190569231483,24.665160915584423 L0.08987523536724495,19.94717083314474 L7.533679827444118,19.948632869117127 L9.512095147571186,13.386284407688635 L9.834824994175296,12.320460183920638 L12.133258145381333,19.94717083314474 L19.579096749094475,19.94717083314474 L13.554354276628858,24.665160915584423 L15.857533454996865,32.299181744670506 L9.832790982531103,27.57899860827225 L9.832790982531103,27.57899860827225 z" style="color: rgb(0, 0, 0);" class="" stroke-opacity="1" fill-opacity="1"/><path fill="#833254" stroke="#ffffff" stroke-width="0" stroke-linejoin="round" stroke-dashoffset="" fill-rule="nonzero" marker-start="" marker-mid="" marker-end="" d="M15.014690875227728,8.627100926676057 L12.283239001031866,10.611431227898624 L13.327364458570422,7.40157558104945 L10.596527499247784,5.417245279826899 L13.972102704877468,5.417860194701838 L14.86926350732077,2.6578147788242177 L15.015613247542738,2.2095418350400227 L16.057893960454862,5.417245279826899 L19.434391538395953,5.417245279826899 L16.702324749323406,7.40157558104945 L17.746757664300347,10.612353600211016 L15.014690875227728,8.627100926676057 L15.014690875227728,8.627100926676057 z" style="color: rgb(0, 0, 0);" class="" stroke-opacity="1" fill-opacity="1" id="svg_4"/><path fill="#833254" stroke="#ffffff" stroke-width="0" stroke-linejoin="round" stroke-dashoffset="" fill-rule="nonzero" marker-start="" marker-mid="" marker-end="" d="M24.262201335193062,16.836126497687324 L20.998104421519876,19.2074098701376 L22.24583890135308,15.371618359697258 L18.982476813637774,13.000334987247008 L23.016303920260818,13.00106981320694 L24.088414995688744,9.70280349240045 L24.263303574136074,9.16711536766644 L25.508833576087547,13.000334987247008 L29.5437629216493,13.000334987247008 L26.27893118201409,15.371618359697258 L27.527033074828353,19.20851210907747 L24.262201335193062,16.836126497687324 L24.262201335193062,16.836126497687324 z" style="color: rgb(0, 0, 0);" class="" stroke-opacity="1" fill-opacity="1" id="svg_5"/></g></svg>